<svg data-v-423bf9ae="" xmlns="http://www.w3.org/2000/svg" viewBox="0 0 463 90" class="iconLeft"><!----><!----><!----><g data-v-423bf9ae="" id="646fb2b2-da64-47dc-aa7c-1d772b3917e0" fill="black" transform="matrix(6.4308675624526295,0,0,6.4308675624526295,105.56270006955461,-3.392283040902292)"><path d="M2.65 4.54L2.65 12.05L0.69 12.05L0.69 4.70Q0.69 2.86 2.42 2.86L2.42 2.86L3.46 2.86Q4.48 2.86 4.91 3.53L4.91 3.53Q5.32 2.86 6.37 2.86L6.37 2.86L7.41 2.86Q9.14 2.86 9.14 4.70L9.14 4.70L9.14 12.05L7.18 12.05L7.18 4.54Q7.18 4.42 7.11 4.34Q7.03 4.26 6.92 4.26L6.92 4.26L6.16 4.26Q6.05 4.26 5.97 4.34Q5.89 4.42 5.89 4.54L5.89 4.54L5.89 12.05L3.93 12.05L3.93 4.54Q3.93 4.42 3.86 4.34Q3.78 4.26 3.67 4.26L3.67 4.26L2.91 4.26Q2.80 4.26 2.72 4.34Q2.65 4.42 2.65 4.54L2.65 4.54ZM12.15 5.08L13.73 5.08Q15.47 5.08 15.47 6.93L15.47 6.93L15.47 9.14L12.29 9.14L12.29 10.57Q12.29 10.68 12.37 10.77Q12.45 10.85 12.56 10.85L12.56 10.85L13.33 10.85Q13.44 10.85 13.52 10.77Q13.59 10.68 13.59 10.57L13.59 10.57L13.59 9.81L15.47 9.81L15.47 10.35Q15.47 12.19 13.73 12.19L13.73 12.19L12.15 12.19Q10.42 12.19 10.42 10.35L10.42 10.35L10.42 6.93Q10.42 5.08 12.15 5.08L12.15 5.08ZM12.29 6.65L12.29 7.91L13.59 7.91L13.59 6.65Q13.59 6.54 13.52 6.45Q13.44 6.37 13.33 6.37L13.33 6.37L12.56 6.37Q12.45 6.37 12.37 6.45Q12.29 6.54 12.29 6.65L12.29 6.65ZM18.38 6.71L18.38 12.05L16.51 12.05L16.51 5.22L18.21 5.22L18.21 5.57Q18.65 5.08 19.53 5.08L19.53 5.08L19.82 5.08Q21.56 5.08 21.56 6.93L21.56 6.93L21.56 12.05L19.68 12.05L19.68 6.71Q19.68 6.59 19.61 6.51Q19.53 6.43 19.42 6.43L19.42 6.43L18.65 6.43Q18.54 6.43 18.46 6.51Q18.38 6.59 18.38 6.71L18.38 6.71ZM25.33 10.98L25.33 10.98L25.89 10.98L25.89 12.19L24.57 12.19Q22.83 12.19 22.83 10.35L22.83 10.35L22.83 3.74L24.71 3.74L24.71 5.22L25.89 5.22L25.89 6.58L24.71 6.58L24.71 10.30Q24.71 10.70 24.86 10.84Q25.02 10.98 25.33 10.98ZM31.92 6.93L31.92 6.93L31.92 10.35Q31.92 12.19 30.18 12.19L30.18 12.19L28.60 12.19Q26.87 12.19 26.87 10.35L26.87 10.35L26.87 6.93Q26.87 5.08 28.60 5.08L28.60 5.08L30.18 5.08Q31.92 5.08 31.92 6.93ZM30.04 10.74L30.04 10.74L30.04 6.52Q30.04 6.41 29.97 6.33Q29.89 6.24 29.78 6.24L29.78 6.24L29.01 6.24Q28.90 6.24 28.82 6.33Q28.74 6.41 28.74 6.52L28.74 6.52L28.74 10.74Q28.74 10.85 28.82 10.93Q28.90 11.02 29.01 11.02L29.01 11.02L29.78 11.02Q29.89 11.02 29.97 10.93Q30.04 10.85 30.04 10.74ZM36.11 5.08L36.11 5.08L36.47 5.08L36.47 6.90L35.55 6.90Q35.07 6.90 35.07 7.39L35.07 7.39L35.07 12.05L33.19 12.05L33.19 5.22L34.90 5.22L34.90 5.88Q35.31 5.08 36.11 5.08ZM40.89 8.50L39.34 8.50L39.34 12.05L37.38 12.05L37.38 3.00L39.34 3.00L39.34 6.79L40.89 6.79L40.89 3.00L42.85 3.00L42.85 12.05L40.89 12.05L40.89 8.50ZM47.36 10.57L47.36 5.22L49.24 5.22L49.24 12.05L47.53 12.05L47.53 11.70Q47.10 12.19 46.21 12.19L46.21 12.19L45.92 12.19Q44.18 12.19 44.18 10.35L44.18 10.35L44.18 5.22L46.06 5.22L46.06 10.57Q46.06 10.68 46.14 10.77Q46.21 10.85 46.33 10.85L46.33 10.85L47.10 10.85Q47.21 10.85 47.29 10.77Q47.36 10.68 47.36 10.57L47.36 10.57ZM53.54 5.08L53.54 5.08L53.83 5.08Q55.57 5.08 55.57 6.93L55.57 6.93L55.57 10.35Q55.57 12.19 53.83 12.19L53.83 12.19L53.54 12.19Q52.53 12.19 52.09 11.55L52.09 11.55L52.09 12.05L50.51 12.05L50.51 3.00L52.39 3.00L52.39 5.42Q52.84 5.08 53.54 5.08ZM52.39 6.71L52.39 6.71L52.39 10.57Q52.39 10.68 52.47 10.77Q52.54 10.85 52.65 10.85L52.65 10.85L53.42 10.85Q53.54 10.85 53.61 10.77Q53.69 10.68 53.69 10.57L53.69 10.57L53.69 6.71Q53.69 6.59 53.61 6.51Q53.54 6.43 53.42 6.43L53.42 6.43L52.65 6.43Q52.54 6.43 52.47 6.51Q52.39 6.59 52.39 6.71Z"></path></g><!----><g data-v-423bf9ae="" id="b20548fb-3bb8-4362-8f9c-690ee5e7fb19" transform="matrix(2.8125,0,0,2.8125,0,0)" stroke="none" fill="black"><path d="M15.965 16.258l.707-.707 10.39 10.39-.707.707z"></path><path d="M4.935 26.357L26.018 5.274l.707.707L5.642 27.065z"></path><path d="M31 1v4.194h-4.194V1H31m1-1h-6.194v6.194H32V0zM31 26.806V31h-4.194v-4.194H31m1-1h-6.194V32H32v-6.194zM5.194 26.806V31H1v-4.194h4.194m1-1H0V32h6.194v-6.194z"></path></g><!----></svg>